<svg width="80" height="80" viewBox="0 0 80 80" fill="none" xmlns="http://www.w3.org/2000/svg">
<path d="M42.8141 0.0991152C33.4437 -0.561763 24.1397 2.0963 16.5325 7.60745C8.92539 13.1186 3.50054 21.1312 1.20873 30.2411L8.20283 32.0006C10.0814 24.5333 14.5282 17.9653 20.7637 13.4479C26.9993 8.93037 34.6258 6.75156 42.3067 7.29328L42.8141 0.0991152Z" fill="#6B0429"/>
<path d="M1.22961 30.1584C-1.08161 39.2633 -0.11468 48.8912 3.96093 57.3547C8.03655 65.8182 14.9608 72.5773 23.5202 76.4474L26.4898 69.8797C19.4728 66.707 13.7963 61.1658 10.4551 54.2274C7.11386 47.289 6.32117 39.3961 8.21591 31.9318L1.22961 30.1584Z" fill="#9F083E"/>
<path d="M23.5272 76.4506C32.0874 80.3191 41.7359 81.0515 50.7819 78.5195C59.8279 75.9874 67.6942 70.3525 73.0021 62.6022L67.0714 58.5404C62.7173 64.8979 56.2647 69.5202 48.8443 71.5972C41.424 73.6742 33.5093 73.0734 26.4875 69.9001L23.5272 76.4506Z" fill="#B40A47"/>
<path d="M72.9023 62.7472C78.2184 55.0579 80.6734 45.7496 79.8411 36.4387C79.0089 27.1278 74.9418 18.4024 68.3463 11.7779L63.244 16.8579C68.6523 22.29 71.9873 29.4448 72.6697 37.0797C73.3522 44.7147 71.3391 52.3475 66.9799 58.6527L72.9023 62.7472Z" fill="#CA0B4F"/>
<path d="M68.522 11.9554C61.6628 4.97948 52.4848 0.759176 42.7242 0.092876L42.2339 7.27616C50.2375 7.82253 57.7635 11.2832 63.388 17.0035L68.522 11.9554Z" fill="#DF0C57"/>
</svg>
